<svg width="169" height="287" viewBox="0 0 169 287" fill="none" xmlns="http://www.w3.org/2000/svg">
<path d="M95.4337 26.9961C113.359 10.913 54.5762 1.22978 25.9196 1.00031C-2.73707 0.770847 1.18061 126.009 1.18061 126.009C1.18061 126.009 44.799 300.533 92.7071 259.67C140.615 218.806 121.38 153.222 83.1555 135.302C44.9309 117.383 77.508 43.0793 95.4337 26.9961Z" fill="#6713D2" fill-opacity="0.5"/>
<path d="M95.4337 26.9961C113.359 10.913 54.5762 1.22978 25.9196 1.00031C-2.73707 0.770847 1.18061 126.009 1.18061 126.009C1.18061 126.009 44.799 300.533 92.7071 259.67C140.615 218.806 121.38 153.222 83.1555 135.302C44.9309 117.383 77.508 43.0793 95.4337 26.9961Z" fill="#CC208E" fill-opacity="0.5"/>
<path d="M95.4337 26.9961C113.359 10.913 54.5762 1.22978 25.9196 1.00031C-2.73707 0.770847 1.18061 126.009 1.18061 126.009C1.18061 126.009 44.799 300.533 92.7071 259.67C140.615 218.806 121.38 153.222 83.1555 135.302C44.9309 117.383 77.508 43.0793 95.4337 26.9961Z" stroke="#F81111"/>
<ellipse cx="114" cy="276.5" rx="10" ry="10.5" fill="#CC208E"/>
<ellipse cx="94" cy="84.5" rx="10" ry="10.5" fill="#CC208E"/>
<ellipse cx="150" cy="224.5" rx="19" ry="19.5" fill="#CC208E"/>
<ellipse cx="150" cy="224.5" rx="19" ry="19.5" fill="black" fill-opacity="0.5"/>
</svg>
