<svg width="702" height="671" viewBox="0 0 702 671" fill="none" xmlns="http://www.w3.org/2000/svg">
<path d="M70.0587 192.271C64.2122 154.106 -27.7737 124 10.1314 1H701V656.915C496.91 685.222 363.361 663.572 320.974 630.288C278.586 597.004 213.592 522.892 221.582 468.306C229.572 413.72 80.2903 428.809 51.0575 327.626C21.8246 226.443 75.9052 230.437 70.0587 192.271Z" fill="#6713D2" fill-opacity="0.5"/>
<path d="M70.0587 192.271C64.2122 154.106 -27.7737 124 10.1314 1H701V656.915C496.91 685.222 363.361 663.572 320.974 630.288C278.586 597.004 213.592 522.892 221.582 468.306C229.572 413.72 80.2903 428.809 51.0575 327.626C21.8246 226.443 75.9052 230.437 70.0587 192.271Z" fill="#CC208E" fill-opacity="0.5"/>
<path d="M70.0587 192.271C64.2122 154.106 -27.7737 124 10.1314 1H701V656.915C496.91 685.222 363.361 663.572 320.974 630.288C278.586 597.004 213.592 522.892 221.582 468.306C229.572 413.72 80.2903 428.809 51.0575 327.626C21.8246 226.443 75.9052 230.437 70.0587 192.271Z" stroke="#F81111"/>
</svg>
